<svg width="14" height="15" viewBox="0 0 14 15" fill="none" xmlns="http://www.w3.org/2000/svg">
<path d="M13.3002 1.21022C12.9102 0.820215 12.2802 0.820215 11.8902 1.21022L7.00022 6.09022L2.11022 1.20021C1.72022 0.810215 1.09021 0.810215 0.700215 1.20021C0.310215 1.59021 0.310215 2.22022 0.700215 2.61022L5.59022 7.50022L0.700215 12.3902C0.310215 12.7802 0.310215 13.4102 0.700215 13.8002C1.09021 14.1902 1.72022 14.1902 2.11022 13.8002L7.00022 8.91021L11.8902 13.8002C12.2802 14.1902 12.9102 14.1902 13.3002 13.8002C13.6902 13.4102 13.6902 12.7802 13.3002 12.3902L8.41021 7.50022L13.3002 2.61022C13.6802 2.23022 13.6802 1.59022 13.3002 1.21022Z" fill="#111322"/>
</svg>
